<svg width="80" height="80" viewBox="0 0 80 80" fill="none" xmlns="http://www.w3.org/2000/svg">
<g clip-path="url(#clip0_25_722)">
<path d="M73.9814 52.5035L43.7889 69.5109L43.6699 78.8603L73.8669 61.853L73.9814 52.5035Z" fill="#B8D4E4"/>
<path d="M78.1368 50.2151L68.3977 46.4055L33.7941 66.0438L43.8255 69.5612L78.1368 50.2151Z" fill="#F28937"/>
<path d="M61.1811 26.5916L71.1931 28.9215V54.0288L61.1811 50.5029L61.1811 26.5916Z" fill="#A8C3D2"/>
<path d="M78.4365 15.8961L43.6387 36.022L34.1074 32.4654L68.4912 12.4449L78.4365 15.8961Z" fill="#F28937"/>
<path d="M78.3252 24.897L50.8076 40.7203L50.8115 74.8238L43.5801 78.9136V44.8765L43.3213 45.0259L43.5381 35.8638L78.4248 15.8951L78.3252 24.897Z" fill="#B8D4E4"/>
<path d="M78.4205 24.8456L71.1931 28.9385V63.2957L78.4265 59.2024L78.4205 24.8456Z" fill="#B8D4E4"/>
<path d="M43.5801 35.9136V78.9136L33.1553 75.3248V32.3248L43.5801 35.9136Z" fill="#D75E29"/>
<path d="M42.332 9.90778L71.3047 19.6197V19.6138L72.125 19.1392V19.1119L78.5391 15.4009V15.0689H78.5381V14.8238L66.5195 10.7564L66.8408 9.80914L78.6914 13.8209L79.0752 13.9459L79.3584 14.0377V14.7759H79.3594V18.4742L79.3623 24.2779L78.541 24.7515L78.542 24.7798L71.3047 28.9644V28.9693L41.5049 18.982L31.3271 24.8707L40.6123 28.0142L40.9971 28.1392L41.2803 28.231V33.983H41.2793L41.2812 39.0738L34.0498 43.2574V43.2525L33.2188 43.7339V43.733L19.6279 39.1773L19.6318 65.4742L18.8105 65.938L18.8115 65.9761L11.5801 70.066V36.48L3.40137 33.7388V24.3892L17.8838 29.2427V23.3004L18.7041 22.8248V22.7984L42.332 9.1236V9.90778ZM21.6123 30.4918L33.2188 34.3824V34.3834L40.4463 30.1998V30.2037L40.46 30.1959V29.0181L30.1768 25.5367L21.6123 30.4918Z" fill="#1F2327"/>
<path d="M41.5166 17.8238L18.8076 30.9634L18.8115 64.8238L11.5801 68.9136V34.8394L17.8838 31.19V22.148L41.5117 8.47321L41.5166 17.8238ZM40.4609 38.3697L33.2295 42.5543V33.2037L40.457 29.0201L40.4609 38.3697ZM78.542 23.6275L71.3047 27.8121V18.4615L78.5371 14.2779L78.542 23.6275Z" fill="#B8D4E4"/>
<path d="M48.7314 4.27008H48.7295L78.542 14.2857L71.3008 18.4908L41.5039 8.47906L18.8037 21.7027L40.4609 29.0045L33.2197 33.2095L11.5762 25.9117L11.5752 25.9136L1.5 22.524L38.6562 0.880432L48.7314 4.27008Z" fill="#F28937"/>
<path d="M11.5801 25.9136V25.9088L33.2188 33.2037V42.5543L11.5801 35.2584V68.9136L1.5 65.524V22.524L11.5801 25.9136Z" fill="#D75E29"/>
<path d="M41.487 8.47321L71.3047 18.4668V27.817L41.487 17.8233V8.47321Z" fill="#A8C3D2"/>
</g>
<defs>
<clipPath id="clip0_25_722">
<rect width="78" height="79" fill="white" transform="translate(1.5 0.523987)"/>
</clipPath>
</defs>
</svg>
