<svg width="80" height="80" viewBox="0 0 80 80" fill="none" xmlns="http://www.w3.org/2000/svg">
<g clip-path="url(#clip0_25_771)">
<path d="M73.9814 52.7795L43.7889 69.7869L43.6699 79.1363L73.8669 62.129L73.9814 52.7795Z" fill="#191C1E"/>
<path d="M78.1368 50.4911L68.3977 46.6815L33.7941 66.3198L43.8255 69.8372L78.1368 50.4911Z" fill="#F28937"/>
<path d="M61.1811 26.8676L71.1931 29.1975V54.3048L61.1811 50.7789L61.1811 26.8676Z" fill="#151617"/>
<path d="M78.4365 16.1721L43.6387 36.298L34.1074 32.7414L68.4912 12.7209L78.4365 16.1721Z" fill="#F28937"/>
<path d="M78.3252 25.173L50.8076 40.9963L50.8115 75.0998L43.5801 79.1896V45.1525L43.3213 45.3019L43.5381 36.1398L78.4248 16.1711L78.3252 25.173Z" fill="#191C1E"/>
<path d="M78.4205 25.1216L71.1931 29.2145V63.5717L78.4265 59.4784L78.4205 25.1216Z" fill="#191C1E"/>
<path d="M43.5801 36.1896V79.1896L33.1553 75.6008V32.6008L43.5801 36.1896Z" fill="#D75E29"/>
<path d="M42.3316 10.1852L71.3043 19.8951V19.8902L72.1246 19.4156V19.3883L78.5387 15.6773V15.1002L66.5201 11.0318L66.8404 10.0846L78.6178 14.0719L79.0758 14.2213L79.359 14.3131V19.0279L79.3619 24.5543L78.5406 25.0279L78.5416 25.0562L71.3043 29.2398V29.2457L41.5045 19.2574L31.3268 25.1471L40.5377 28.2652L40.9967 28.4146L41.2799 28.5064V34.2594H41.2789L41.2809 39.3502L34.0494 43.5338V43.5279L33.2184 44.0094V44.0084L19.6275 39.4537L19.6314 65.7506L18.8111 66.2135L18.8121 66.2525L11.5797 70.3424V36.7555L3.40097 34.0152V24.6646L17.8834 29.5182V23.5768L18.7037 23.1012V23.0748L42.3316 9.39999V10.1852ZM21.6109 30.7682L33.2184 34.6588V34.6598L40.4459 30.4762V30.4801L40.4596 30.4713V29.2935L30.1754 25.8131L21.6109 30.7682Z" fill="black"/>
<path d="M41.5166 18.0998L18.8076 31.2394L18.8115 65.0998L11.5801 69.1896V35.1154L17.8838 31.466V22.424L41.5117 8.74921L41.5166 18.0998ZM40.4609 38.6457L33.2295 42.8303V33.4797L40.457 29.2961L40.4609 38.6457ZM78.542 23.9035L71.3047 28.0881V18.7375L78.5371 14.5539L78.542 23.9035Z" fill="#191C1E"/>
<path d="M48.7314 4.54608H48.7295L78.542 14.5617L71.3008 18.7668L41.5039 8.75507L18.8037 21.9787L40.4609 29.2805L33.2197 33.4855L11.5762 26.1877L11.5752 26.1896L1.5 22.8L38.6562 1.15643L48.7314 4.54608Z" fill="#F28937"/>
<path d="M11.5801 26.1896V26.1848L33.2188 33.4797V42.8303L11.5801 35.5344V69.1896L1.5 65.8V22.8L11.5801 26.1896Z" fill="#D75E29"/>
<path d="M41.487 8.74921L71.3047 18.7428V28.093L41.487 18.0993V8.74921Z" fill="#151617"/>
</g>
<defs>
<clipPath id="clip0_25_771">
<rect width="80" height="80" fill="white"/>
</clipPath>
</defs>
</svg>
